{
    "asset" : {
        "copyright" : "mgsx",
        "generator" : "Khronos glTF Blender I/O v0.9.36",
        "version" : "2.0"
    },
    "extensionsUsed" : [
        "KHR_lights_punctual"
    ],
    "extensionsRequired" : [
        "KHR_lights_punctual"
    ],
    "extensions" : {
        "KHR_lights_punctual" : {
            "lights" : [
                {
                    "color" : [
                        0.5130307078361511,
                        0.6648077368736267,
                        1
                    ],
                    "intensity" : 463.6999816894531,
                    "type" : "point",
                    "name" : "Light"
                },
                {
                    "color" : [
                        0.8235712051391602,
                        0.5787252187728882,
                        1
                    ],
                    "intensity" : 0.6600000262260437,
                    "type" : "directional",
                    "name" : "Sun"
                }
            ]
        }
    },
    "scene" : 0,
    "scenes" : [
        {
            "extras" : {
                "glTF2ExportSettings" : {
                    "export_apply" : 1,
                    "export_cameras" : 1,
                    "export_copyright" : "mgsx",
                    "export_extras" : 1,
                    "export_format" : "GLTF_SEPARATE",
                    "export_lights" : 1,
                    "export_morph_tangent" : 1,
                    "export_selected" : 1,
                    "export_tangents" : 1
                }
            },
            "name" : "Scene",
            "nodes" : [
                1,
                3,
                5,
                6
            ]
        }
    ],
    "nodes" : [
        {
            "extensions" : {
                "KHR_lights_punctual" : {
                    "light" : 0
                }
            },
            "name" : "Light_Orientation",
            "rotation" : [
                -0.7071067690849304,
                0,
                0,
                0.7071067690849304
            ]
        },
        {
            "children" : [
                0
            ],
            "name" : "Light",
            "rotation" : [
                0.16907575726509094,
                0.7558803558349609,
                -0.27217137813568115,
                0.570947527885437
            ],
            "translation" : [
                1.039937973022461,
                -5.657461166381836,
                3.753373384475708
            ]
        },
        {
            "camera" : 0,
            "name" : "Camera_Orientation",
            "rotation" : [
                -0.7071067690849304,
                0,
                0,
                0.7071067690849304
            ]
        },
        {
            "children" : [
                2
            ],
            "name" : "Camera",
            "rotation" : [
                0.7307582497596741,
                0,
                0,
                0.6826363801956177
            ],
            "translation" : [
                0,
                -0.26999998092651367,
                8.376516342163086
            ]
        },
        {
            "extensions" : {
                "KHR_lights_punctual" : {
                    "light" : 1
                }
            },
            "name" : "Sun_Orientation",
            "rotation" : [
                -0.7071067690849304,
                0,
                0,
                0.7071067690849304
            ]
        },
        {
            "children" : [
                4
            ],
            "name" : "Sun",
            "rotation" : [
                -0.48194512724876404,
                -0.1859010010957718,
                -0.23656873404979706,
                0.8229246139526367
            ],
            "translation" : [
                11.18818187713623,
                9.060977935791016,
                -12.294268608093262
            ]
        },
        {
            "mesh" : 0,
            "name" : "Cube.003",
            "rotation" : [
                0,
                0.9813783168792725,
                -0.19208474457263947,
                7.955948433391313e-08
            ],
            "translation" : [
                -0.007802367210388184,
                -2.639955520629883,
                -0.32612913846969604
            ]
        }
    ],
    "cameras" : [
        {
            "name" : "Camera",
            "perspective" : {
                "yfov" : 0.6280021785971227,
                "zfar" : 100,
                "znear" : 0.10000000149011612
            },
            "type" : "perspective"
        }
    ],
    "animations" : [
        {
            "channels" : [
                {
                    "sampler" : 0,
                    "target" : {
                        "node" : 6,
                        "path" : "translation"
                    }
                },
                {
                    "sampler" : 1,
                    "target" : {
                        "node" : 6,
                        "path" : "rotation"
                    }
                }
            ],
            "name" : "Cube.003Action",
            "samplers" : [
                {
                    "input" : 6,
                    "interpolation" : "LINEAR",
                    "output" : 7
                },
                {
                    "input" : 6,
                    "interpolation" : "LINEAR",
                    "output" : 8
                }
            ]
        }
    ],
    "materials" : [
        {
            "doubleSided" : true,
            "name" : "BackedMat",
            "normalTexture" : {
                "index" : 0,
                "texCoord" : 0
            },
            "pbrMetallicRoughness" : {
                "baseColorTexture" : {
                    "index" : 1,
                    "texCoord" : 0
                },
                "metallicFactor" : 0,
                "metallicRoughnessTexture" : {
                    "index" : 2,
                    "texCoord" : 0
                }
            }
        }
    ],
    "meshes" : [
        {
            "name" : "Cube.008",
            "primitives" : [
                {
                    "attributes" : {
                        "POSITION" : 0,
                        "NORMAL" : 1,
                        "TANGENT" : 2,
                        "TEXCOORD_0" : 3,
                        "COLOR_0" : 4
                    },
                    "indices" : 5,
                    "material" : 0
                }
            ]
        }
    ],
    "textures" : [
        {
            "source" : 0
        },
        {
            "source" : 1
        },
        {
            "source" : 2
        }
    ],
    "images" : [
        {
            "mimeType" : "image/png",
            "name" : "BackedMat Normal",
            "uri" : "BackedMat Normal.png"
        },
        {
            "mimeType" : "image/png",
            "name" : "BackedMat Base Color",
            "uri" : "BackedMat Base Color.png"
        },
        {
            "mimeType" : "image/png",
            "name" : "BackedMat Roughness",
            "uri" : "BackedMat Roughness.png"
        }
    ],
    "accessors" : [
        {
            "bufferView" : 0,
            "componentType" : 5126,
            "count" : 2574,
            "max" : [
                2.3384783267974854,
                4.80753231048584,
                2.2093658447265625
            ],
            "min" : [
                -2.3384785652160645,
                -1.3547481298446655,
                -1.5114407539367676
            ],
            "type" : "VEC3"
        },
        {
            "bufferView" : 1,
            "componentType" : 5126,
            "count" : 2574,
            "type" : "VEC3"
        },
        {
            "bufferView" : 2,
            "componentType" : 5126,
            "count" : 2574,
            "type" : "VEC4"
        },
        {
            "bufferView" : 3,
            "componentType" : 5126,
            "count" : 2574,
            "type" : "VEC2"
        },
        {
            "bufferView" : 4,
            "componentType" : 5126,
            "count" : 2574,
            "type" : "VEC4"
        },
        {
            "bufferView" : 5,
            "componentType" : 5123,
            "count" : 7509,
            "type" : "SCALAR"
        },
        {
            "bufferView" : 6,
            "componentType" : 5126,
            "count" : 6,
            "max" : [
                5
            ],
            "min" : [
                0
            ],
            "type" : "SCALAR"
        },
        {
            "bufferView" : 7,
            "componentType" : 5126,
            "count" : 6,
            "type" : "VEC3"
        },
        {
            "bufferView" : 8,
            "componentType" : 5126,
            "count" : 6,
            "type" : "VEC4"
        }
    ],
    "bufferViews" : [
        {
            "buffer" : 0,
            "byteLength" : 30888,
            "byteOffset" : 0
        },
        {
            "buffer" : 0,
            "byteLength" : 30888,
            "byteOffset" : 30888
        },
        {
            "buffer" : 0,
            "byteLength" : 41184,
            "byteOffset" : 61776
        },
        {
            "buffer" : 0,
            "byteLength" : 20592,
            "byteOffset" : 102960
        },
        {
            "buffer" : 0,
            "byteLength" : 41184,
            "byteOffset" : 123552
        },
        {
            "buffer" : 0,
            "byteLength" : 15018,
            "byteOffset" : 164736
        },
        {
            "buffer" : 0,
            "byteLength" : 24,
            "byteOffset" : 179756
        },
        {
            "buffer" : 0,
            "byteLength" : 72,
            "byteOffset" : 179780
        },
        {
            "buffer" : 0,
            "byteLength" : 96,
            "byteOffset" : 179852
        }
    ],
    "buffers" : [
        {
            "byteLength" : 179948,
            "uri" : "ending-poc.bin"
        }
    ]
}
